<?xml version="1.0" encoding="UTF-8"?>
<svg width="20px" height="20px" viewBox="0 0 20 20" version="1.1" xmlns="http://www.w3.org/2000/svg" xmlns:xlink="http://www.w3.org/1999/xlink">
    <!-- Generator: sketchtool 55.2 (78181) - https://sketchapp.com -->
    <title>1CCC05CA-74C8-4C3D-9755-A442923713F2</title>
    <desc>Created with sketchtool.</desc>
    <g id="二级页面2" stroke="none" stroke-width="1" fill="none" fill-rule="evenodd">
        <g id="我的-代理人模式" transform="translate(-65.000000, -197.000000)" fill-rule="nonzero">
            <g id="编组" transform="translate(0.000000, 177.000000)">
                <g id="代付款" transform="translate(40.000000, 20.000000)">
                    <g id="皇冠" transform="translate(25.000000, 0.000000)">
                        <rect id="矩形" fill="#000000" opacity="0" x="0" y="0" width="20" height="20"></rect>
                        <path d="M3.62732248,17 L2,7.65967728 L6.85349507,10.978681 L11,4.95932766 L14.5004796,10.9796638 L19,7.65967728 L17.4912513,17 L3.62732248,17 Z M1.03081294,6.99952322 C0.6663702,7.01075809 0.324698505,6.82274539 0.139156502,6.50886881 C-0.0463855007,6.19499222 -0.0463855007,5.80500778 0.139156502,5.49113119 C0.324698505,5.17725461 0.6663702,4.98924191 1.03081294,5.00047678 C1.57084408,5.0171246 2,5.45971336 2,6 C2,6.54028664 1.57084408,6.9828754 1.03081294,6.99952322 L1.03081294,6.99952322 Z M11.0308132,3.99952321 C10.6663704,4.01075818 10.3246986,3.82274551 10.1391565,3.50886889 C9.95361448,3.19499226 9.95361448,2.80500774 10.1391565,2.49113111 C10.3246986,2.17725449 10.6663704,1.98924182 11.0308132,2.00047679 C11.5708442,2.01712475 12,2.45971346 12,3 C12,3.54028654 11.5708442,3.98287525 11.0308132,3.99952321 L11.0308132,3.99952321 Z M19.0308129,6.99952322 C18.6663702,7.01075809 18.3246985,6.82274539 18.1391565,6.50886881 C17.9536145,6.19499222 17.9536145,5.80500778 18.1391565,5.49113119 C18.3246985,5.17725461 18.6663702,4.98924191 19.0308129,5.00047678 C19.5708441,5.0171246 20,5.45971336 20,6 C20,6.54028664 19.5708441,6.9828754 19.0308129,6.99952322 Z M4.5124451,19 C4.22942949,19 4,18.7761424 4,18.5 C4,18.2238576 4.22942949,18 4.5124451,18 L17.4875549,18 C17.7705705,18 18,18.2238576 18,18.5 C18,18.7761424 17.7705705,19 17.4875549,19 L4.51142021,19 L4.5124451,19 Z" id="形状" fill="#FA7105"></path>
                    </g>
                </g>
            </g>
        </g>
    </g>
</svg>