<?xml version="1.0" encoding="UTF-8"?>
<svg width="14px" height="14px" viewBox="0 0 14 14" version="1.1" xmlns="http://www.w3.org/2000/svg" xmlns:xlink="http://www.w3.org/1999/xlink">
    <!-- Generator: sketchtool 55.2 (78181) - https://sketchapp.com -->
    <title>B34CEEC2-2D59-471D-B9D3-B6D5F42D4021</title>
    <desc>Created with sketchtool.</desc>
    <g id="二级页面2" stroke="none" stroke-width="1" fill="none" fill-rule="evenodd">
        <g id="我的-普通用户模式" transform="translate(-316.000000, -122.000000)" fill-rule="nonzero">
            <g id="个人资料" transform="translate(20.000000, 112.000000)">
                <g id="签到" transform="translate(295.000000, 9.000000)">
                    <rect id="矩形" fill="#000000" opacity="0" x="0" y="0" width="16" height="16"></rect>
                    <path d="M13.0609375,2.9125 L11.4375,2.9125 C11.4421875,2.8859375 11.4453125,2.859375 11.4453125,2.83125 L11.4453125,1.9484375 C11.4453125,1.665625 11.2203125,1.4359375 10.946875,1.4359375 C10.671875,1.4359375 10.4484375,1.6671875 10.4484375,1.9484375 L10.4484375,2.83125 C10.4484375,2.859375 10.4515625,2.8859375 10.45625,2.9125 L5.5234375,2.9125 C5.528125,2.8859375 5.53125,2.859375 5.53125,2.83125 L5.53125,1.9484375 C5.53125,1.665625 5.30625,1.4359375 5.0328125,1.4359375 C4.7578125,1.4359375 4.534375,1.6671875 4.534375,1.9484375 L4.534375,2.83125 C4.534375,2.859375 4.5375,2.8859375 4.5421875,2.9125 L2.91875,2.9125 C1.859375,2.9125 0.9984375,3.7984375 0.9984375,4.8859375 L0.9984375,12.5953125 C0.9984375,13.684375 1.8609375,14.56875 2.91875,14.56875 L13.0609375,14.56875 C14.1203125,14.56875 14.98125,13.6828125 14.98125,12.5953125 L14.98125,4.8875 C14.98125,3.7984375 14.1203125,2.9125 13.0609375,2.9125 Z M14.125,12.596875 C14.125,13.2 13.6484375,13.690625 13.0609375,13.690625 L2.91875,13.690625 C2.3328125,13.690625 1.8546875,13.2 1.8546875,12.596875 L1.8546875,6.6015625 L14.125,6.6015625 L14.125,12.596875 Z M14.125,5.7421875 L1.8546875,5.7421875 L1.8546875,4.8875 C1.8546875,4.284375 2.33125,3.79375 2.91875,3.79375 L13.0609375,3.79375 C13.646875,3.79375 14.125,4.284375 14.125,4.8875 L14.125,5.7421875 Z" id="形状" fill="#FA7105"></path>
                    <path d="M3.121875,11.19375 C3.3359375,11.19375 3.509375,11.015625 3.509375,10.7953125 C3.509375,10.575 3.3359375,10.396875 3.121875,10.396875 C2.9078125,10.396875 2.734375,10.575 2.734375,10.7953125 C2.734375,11.015625 2.9078125,11.19375 3.121875,11.19375 Z M3.40625,11.7734375 L3.40625,11.771875 L3.40625,11.759375 L3.403125,11.759375 C3.3953125,11.578125 3.2609375,11.4328125 3.09375,11.4328125 C2.9265625,11.4328125 2.7921875,11.578125 2.784375,11.759375 L2.7828125,11.759375 C2.7890625,12.6765625 3.059375,12.959375 3.9140625,12.959375 L7.1140625,12.959375 C7.2859375,12.959375 7.4265625,12.80625 7.4265625,12.61875 C7.4265625,12.43125 7.2875,12.278125 7.1140625,12.278125 L3.915625,12.278125 C3.4109375,12.278125 3.40625,12.2890625 3.40625,11.7734375 L3.40625,11.7734375 Z M2.825,11.8234375 L2.825,11.7234375 L2.825,11.8234375 Z M7.325,11.146875 C7.39375,11.2171875 7.484375,11.25625 7.58125,11.25625 C7.6453125,11.25625 7.7078125,11.2390625 7.759375,11.2078125 C7.7921875,11.190625 7.821875,11.1671875 7.8484375,11.140625 L10.725,8.1828125 C10.865625,8.0375 10.865625,7.8 10.725,7.6546875 C10.65625,7.584375 10.565625,7.5453125 10.46875,7.5453125 C10.371875,7.5453125 10.28125,7.584375 10.2125,7.6546875 L7.5828125,10.3578125 L6.2796875,9.0171875 C6.2109375,8.946875 6.1203125,8.9078125 6.0234375,8.9078125 C5.9265625,8.9078125 5.8359375,8.946875 5.7671875,9.0171875 C5.6265625,9.1625 5.6265625,9.4 5.7671875,9.5453125 L7.325,11.146875 L7.325,11.146875 Z" id="形状" fill="#FA7105"></path>
                    <path d="M13.0609375,3.79375 L2.91875,3.79375 C2.3328125,3.79375 1.8546875,4.284375 1.8546875,4.8875 L1.8546875,5.7421875 L14.125,5.7421875 L14.125,4.8875 C14.125,4.284375 13.646875,3.79375 13.0609375,3.79375 Z" id="路径" fill="#F28839"></path>
                </g>
            </g>
        </g>
    </g>
</svg>