<?xml version="1.0" encoding="UTF-8"?>
<svg width="18px" height="18px" viewBox="0 0 18 18" version="1.1" xmlns="http://www.w3.org/2000/svg" xmlns:xlink="http://www.w3.org/1999/xlink">
    <!-- Generator: sketchtool 55.2 (78181) - https://sketchapp.com -->
    <title>93B0C0C6-A0F6-431D-B4F9-11AC958DC217</title>
    <desc>Created with sketchtool.</desc>
    <g id="二级页面2" stroke="none" stroke-width="1" fill="none" fill-rule="evenodd">
        <g id="我的积分" transform="translate(-20.000000, -360.000000)" fill="#FA7105" fill-rule="nonzero">
            <g id="每日任务" transform="translate(0.000000, 339.000000)">
                <g id="每日签到标题" transform="translate(20.000000, 20.000000)">
                    <path d="M17.4839928,3.9334001 C17.1526594,3.59920068 16.70466,3.41140029 16.2373259,3.41140029 L14.527993,3.41140029 L14.527993,1.79979992 C14.527993,1.35879929 14.1306593,1 13.6413265,1 L13.5406598,1.00180023 L13.5406598,1.00720024 L13.5406598,1.00720024 C13.092885,1.05438044 12.7553111,1.39584971 12.7553267,1.80159975 L12.7553267,3.41320012 L5.5266656,3.41320012 L5.5266656,1.79920026 C5.5266656,1.35940025 5.12933193,1 4.6406651,1 L4.53999843,1.00180001 L4.53999843,1.00720001 L4.53999842,1.00720001 C4.09248727,1.05466077 3.75527671,1.3960534 3.7553314,1.80159952 L3.7553314,3.41319989 L1.76266671,3.41319989 C1.29533263,3.41319989 0.845333122,3.60100029 0.515999779,3.9351997 C0.185332406,4.26879968 0,4.72239897 0,5.19519949 L0,17.2180004 C0,17.6908009 0.185333383,18.1444002 0.515999779,18.4780002 C0.847333189,18.8121996 1.29533263,19 1.76266671,19 L16.2373333,19 C16.7046674,19 17.1546669,18.8121996 17.4840002,18.4780002 C17.8146676,18.1444002 18,17.6908009 18,17.2180004 L18,5.19340646 C18,4.72060595 17.8146666,4.26700666 17.4840002,3.93340667 L17.4839928,3.9334001 Z M13.3826635,10.1194011 L8.60732706,14.4273981 C8.25532694,14.7453988 7.68665937,14.7453988 7.33399321,14.4273981 L5.14333359,12.4497932 L5.14333358,12.4497932 C4.8101798,12.1294388 4.81872696,11.6291768 5.16266691,11.3181936 L5.16266685,11.3181936 C5.50630146,11.0076007 6.06220297,10.9996199 6.41666802,11.3001935 L7.97066756,12.702994 L12.1093419,8.96859028 L12.1093419,8.96859035 C12.3366112,8.76339054 12.6686009,8.683483 12.9793418,8.75919099 L12.9793418,8.75919099 C13.4612428,8.87666582 13.7460883,9.32349045 13.6155605,9.75720119 C13.5743478,9.89414075 13.494064,10.0190009 13.3826757,10.1193912 L13.3826635,10.1194011 Z" id="签到icon"></path>
                </g>
            </g>
        </g>
    </g>
</svg>